<svg width="320" height="320" viewBox="0 0 320 320" fill="none" xmlns="http://www.w3.org/2000/svg">
<path d="M129.4 13.3509C88.7333 22.4175 55.4 44.9509 32.4667 79.0842C-7.66667 139.218 0.333329 219.884 51.5333 271.351C66.8667 286.818 90.2 301.751 107.8 307.484C114.333 309.618 115.133 309.618 118.067 307.618C121.267 305.484 121.4 304.951 121.4 289.618V273.884L109.667 274.551C95.9333 275.218 85.2667 272.818 78.8667 267.351C76.6 265.484 72.2 259.084 69.1333 253.218C64.0667 243.351 60.3333 238.818 49.9333 229.618C46.4667 226.551 46.3333 226.418 48.7333 224.684C54.4667 220.418 66.0667 224.551 73.4 233.351C86.2 248.951 91.1333 253.084 98.4667 254.684C105 256.018 111 255.484 120.067 252.818C121.267 252.418 122.867 249.618 123.667 246.418C124.467 243.351 126.6 238.684 128.333 236.151L131.533 231.484L120.733 229.351C98.0667 224.684 84.0667 216.551 74.8667 202.684C66.3333 189.884 63.5333 178.818 63.4 158.151C63.4 138.684 65.5333 130.684 73.9333 119.751C77.6667 114.951 78.0667 113.484 77 110.684C75 105.884 75.5333 85.6175 77.6667 79.4842C79.4 74.9509 80.3333 74.1509 83.9333 73.7509C89.9333 73.0842 101.133 76.9509 112.467 83.3509L122.2 88.9509L130.733 86.9509C142.867 84.1509 179.267 84.2842 190.2 86.9509L198.467 89.0842L206.2 84.4175C216.467 78.2842 229.533 73.4842 236.067 73.4842C241.267 73.4842 241.267 73.6175 243.4 80.4175C245.667 88.2842 246.067 102.551 244.067 109.351C243 113.351 243.267 114.551 246.2 118.418C260.733 137.618 262.333 169.484 250.067 195.618C241.8 212.818 224.333 224.818 200.867 229.218L189.667 231.351L193.8 238.684L198.067 246.151L198.467 275.884L199 305.618L202.333 307.751C205.4 309.751 206.067 309.751 212.467 307.484C223.133 303.884 241.4 294.018 251.4 286.418C310.867 241.884 330.067 162.018 297.133 95.6175C277.8 56.5509 241.267 26.5509 199.4 15.3509C181.133 10.5509 146.733 9.4842 129.4 13.3509Z" fill="white"/>
</svg>
