<svg width="3083" height="831" viewBox="0 0 3083 831" fill="none" xmlns="http://www.w3.org/2000/svg">
<g clip-path="url(#clip0_489_370)">
<path d="M302.352 -0.203184C303.409 -0.208884 304.466 -0.214584 305.555 -0.220456C307.786 -0.229846 310.016 -0.236416 312.247 -0.240293C315.568 -0.249894 318.89 -0.280932 322.211 -0.312559C342.2 -0.412271 361.881 1.48703 381.438 5.68744C382.638 5.94235 383.839 6.19727 385.076 6.4599C411.417 12.2512 437.268 21.3275 461.107 34.0024C463.098 35.0516 465.106 36.0645 467.118 37.0742C500.657 54.0894 532.881 80.1125 557 109C557.663 109.784 557.663 109.784 558.338 110.583C576.262 131.854 591.156 154.921 603.078 180.06C603.689 181.344 604.307 182.624 604.935 183.9C616.586 207.673 624.354 234.01 629 260C629.311 261.66 629.311 261.66 629.629 263.354C636.049 298.892 635.644 337.535 629 373C628.802 374.109 628.604 375.219 628.399 376.362C619.348 425.748 597.614 473.078 566.358 512.293C563.633 515.719 560.943 519.173 558.25 522.625C557.656 523.387 557.062 524.148 556.449 524.933C551.653 531.104 547.006 537.375 542.392 543.682C537.999 549.677 533.518 555.599 529 561.5C523.934 568.119 518.926 574.775 514 581.5C509.075 588.225 504.067 594.88 499 601.5C491.545 611.245 484.249 621.1 477 631C469.091 641.802 461.099 652.531 452.962 663.164C448.58 668.899 444.265 674.677 440 680.5C434.414 688.127 428.708 695.656 422.961 703.164C417.994 709.665 413.125 716.232 408.292 722.834C403.913 728.8 399.44 734.689 394.938 740.562C390.026 746.974 385.198 753.43 380.5 760C375.15 767.481 369.614 774.805 364.019 782.104C359.552 787.94 355.157 793.822 350.813 799.75C348.544 802.835 346.272 805.917 344 809C343.416 809.796 342.831 810.592 342.228 811.412C340.496 813.761 338.75 816.1 337 818.437C336.485 819.142 335.969 819.846 335.437 820.571C331.713 825.508 328.011 828.997 322 831C314.913 831.698 308.716 831.563 303 827C299.667 823.588 296.831 819.83 294 816C293.503 815.33 293.006 814.66 292.493 813.97C290.202 810.879 287.918 807.782 285.646 804.675C281.172 798.559 276.609 792.516 272 786.5C266.347 779.114 260.786 771.668 255.289 764.164C250.928 758.223 246.48 752.352 242 746.5C236.347 739.114 230.786 731.668 225.289 724.164C220.928 718.223 216.48 712.352 212 706.5C206.347 699.114 200.786 691.668 195.289 684.164C190.928 678.223 186.48 672.352 182 666.5C176.347 659.114 170.786 651.668 165.289 644.164C160.928 638.223 156.48 632.352 152 626.5C146.347 619.114 140.786 611.668 135.289 604.164C130.928 598.223 126.48 592.352 122 586.5C116.347 579.114 110.786 571.668 105.289 564.164C100.928 558.223 96.4798 552.352 92.0004 546.5C86.3287 539.088 80.7336 531.627 75.2236 524.094C72.2582 520.044 69.2656 516.021 66.2153 512.035C32.4566 467.854 9.23232 416.443 2.00043 361C1.91536 360.367 1.83029 359.734 1.74265 359.081C0.0412233 346.103 -0.341601 333.231 -0.315244 320.15C-0.312093 316.899 -0.335616 313.649 -0.360898 310.398C-0.4189 291.235 1.31455 272.216 5.25043 253.437C5.4595 252.422 5.66857 251.406 5.88398 250.36C20.0728 183.839 56.4622 119.867 109 75.9999C109.523 75.5584 110.045 75.1169 110.583 74.662C131.854 56.7386 154.921 41.8442 180.061 29.9223C181.345 29.3117 182.625 28.693 183.901 28.0659C219.958 10.3932 262.211 -0.0291732 302.352 -0.203184ZM134.254 108.93C132.247 110.773 130.201 112.548 128.125 114.312C119.735 121.652 112.046 129.587 105.125 138.324C103.762 140.041 102.368 141.734 100.938 143.394C88.6372 157.753 78.6402 174.226 70.0004 191C69.6208 191.733 69.2412 192.467 68.85 193.222C38.8452 251.916 32.3981 320.252 48.0004 384C48.3229 385.323 48.3229 385.323 48.6518 386.672C57.7387 422.965 75.1362 457.393 98.4731 486.551C102.069 491.047 105.483 495.662 108.875 500.312C113.84 507.102 118.887 513.821 124 520.5C129.654 527.886 135.215 535.332 140.711 542.836C145.073 548.777 149.521 554.647 154 560.5C159.654 567.886 165.215 575.332 170.711 582.836C175.073 588.777 179.521 594.647 184 600.5C189.654 607.886 195.215 615.332 200.711 622.836C205.073 628.777 209.521 634.647 214 640.5C219.654 647.886 225.215 655.332 230.711 662.836C235.073 668.777 239.521 674.647 244 680.5C249.653 687.886 255.215 695.33 260.709 702.834C265.741 709.689 270.902 716.441 276.077 723.188C281.222 729.919 286.212 736.751 291.104 743.668C292.38 745.462 293.687 747.234 295 749C295.33 749 295.66 749 296 749C296 645.05 296 541.1 296 434C289.07 432.02 282.14 430.04 275 428C243.26 414.312 219.334 392.403 205.869 360.225C194.678 331.544 195.003 298.454 207.012 270.094C213.299 255.989 221.297 244.185 232 233C232.623 232.314 233.246 231.628 233.887 230.922C253.521 210.012 284.279 198.912 312.387 197.875C345.844 197.316 375.791 208.868 400 232C400.901 232.806 400.901 232.806 401.821 233.629C423.224 253.489 433.929 284.514 435.125 312.973C435.77 345.466 424.302 375.736 401.743 399.223C382.879 418.328 363.096 426.544 337 434C337 537.95 337 641.9 337 749C339.677 746.323 341.788 744.104 343.961 741.121C344.781 740.002 344.781 740.002 345.617 738.86C346.197 738.06 346.778 737.261 347.375 736.437C348.636 734.715 349.896 732.992 351.157 731.269C351.797 730.391 352.438 729.513 353.098 728.608C361.623 716.922 370.248 705.323 379.039 693.836C383.421 688.101 387.736 682.323 392 676.5C397.587 668.873 403.293 661.343 409.039 653.836C414.007 647.335 418.876 640.767 423.709 634.166C428.088 628.2 432.561 622.311 437.063 616.437C441.975 610.026 446.802 603.57 451.5 597C456.853 589.516 462.392 582.189 467.989 574.887C472.39 569.136 476.723 563.342 481 557.5C486.583 549.878 492.284 542.355 498.026 534.853C502.539 528.947 506.98 522.994 511.375 517C517.689 508.395 524.015 499.797 530.825 491.574C576.773 435.853 598.283 362.768 592.229 291.057C588.96 257.632 579.931 225.106 565 195C564.437 193.841 564.437 193.841 563.862 192.658C554.769 174.064 543.216 156.909 530 141C529.31 140.157 529.31 140.157 528.605 139.297C517.62 125.925 505.644 113.671 492 103C490.86 102.061 489.722 101.12 488.586 100.176C412.613 37.4181 305.578 24.0118 134.254 108.93ZM265 257C264.108 257.8 263.216 258.601 262.297 259.426C247.075 273.795 238.343 292.938 237.595 313.891C237.318 334.6 243.896 353.628 258 369C258.664 369.755 259.328 370.511 260.012 371.289C273.268 385.549 292.136 394.184 311.516 395.32C333.082 396.089 352.95 389.727 369 375C369.756 374.336 370.511 373.672 371.289 372.988C385.55 359.732 394.184 340.865 395.321 321.484C396.09 299.919 389.727 280.05 375 264C374.337 263.245 373.673 262.489 372.989 261.711C359.733 247.45 340.865 238.816 321.485 237.68C300.748 236.94 280.547 242.787 265 257Z" fill="white"/>
<path d="M1141 274C1143.31 275.98 1145.62 277.96 1148 280C1148.33 268.12 1148.66 256.24 1149 244C1178.7 244 1208.4 244 1239 244C1239 361.15 1239 478.3 1239 599C1209.3 599 1179.6 599 1149 599C1148.67 587.78 1148.34 576.56 1148 565C1144.94 567.692 1144.94 567.692 1141.81 570.438C1116.46 592.301 1084.78 608 1050.76 608.203C1049.99 608.209 1049.22 608.215 1048.43 608.22C1046.81 608.23 1045.2 608.236 1043.58 608.24C1041.17 608.25 1038.76 608.281 1036.34 608.312C1021.91 608.412 1007.81 606.653 994 602.312C993.177 602.058 992.354 601.803 991.505 601.54C961.629 591.97 933.564 572.652 914 548C912.889 546.645 912.889 546.645 911.754 545.262C877.191 502.386 866.527 448.309 872.125 394.313C876.414 357.729 889.444 321.903 914 294C914.718 293.172 915.436 292.345 916.176 291.492C944.597 259.285 982.106 238.307 1025.49 235.505C1068.71 233.085 1108.03 245.654 1141 274ZM987 347C964.791 372.35 958.98 403.041 961 436C963.895 464.136 977.242 489.212 999.007 507.226C1015.9 520.595 1035.34 526.412 1056.75 526.312C1058.62 526.305 1058.62 526.305 1060.52 526.298C1082.02 526.022 1101.47 518.89 1118 505C1118.73 504.417 1119.46 503.835 1120.21 503.234C1140.96 485.938 1151.06 459.579 1153.47 433.246C1155.78 402.891 1149.11 374.079 1130 350C1114.79 332.565 1094 321.023 1071 318C1038.13 315.802 1010.58 322.609 987 347Z" fill="white"/>
<path d="M1829.52 290.556C1843.4 304.057 1854.13 319.838 1863 337C1863.35 337.675 1863.7 338.35 1864.06 339.045C1886.34 382.55 1888.84 435.005 1873.94 481.25C1865.64 505.843 1852.87 527.421 1836 547C1835.53 547.546 1835.06 548.092 1834.58 548.654C1829.43 554.581 1824.11 560.071 1818 565C1817.09 565.746 1816.18 566.493 1815.25 567.262C1780.63 594.856 1739.38 608.752 1695.25 608.438C1694.34 608.434 1693.43 608.431 1692.49 608.428C1678.03 608.357 1664.08 607.558 1650 604C1649.12 603.78 1648.25 603.561 1647.34 603.335C1635.75 600.332 1624.76 596.235 1614 591C1613.38 590.704 1612.77 590.408 1612.13 590.103C1597.27 582.877 1584 573.331 1572 562C1570.73 560.934 1569.46 559.871 1568.19 558.813C1533.28 528.201 1513.18 482.602 1510.14 436.71C1507.51 386.104 1520.84 337.548 1555.06 299.387C1557.34 296.891 1559.66 294.443 1562 292C1562.87 291.073 1563.75 290.146 1564.65 289.191C1628.14 223.561 1732.89 218.72 1829.52 290.556ZM1623.64 352.5C1606.68 372.018 1599.56 397.098 1599.69 422.625C1599.69 423.852 1599.7 425.079 1599.7 426.343C1600.11 457.155 1610.78 482.618 1632.95 504.324C1653.65 523.133 1679.62 526.868 1706.52 526.175C1729.83 525.005 1750.68 512.593 1766.39 495.926C1786.11 473.849 1793.52 444.631 1792.17 415.538C1790.55 391.124 1782.8 368.188 1766 350C1765.33 349.236 1764.65 348.471 1763.96 347.684C1748.25 330.77 1725.82 321.592 1703 320.617C1671.55 319.863 1645.19 328.804 1623.64 352.5Z" fill="white"/>
<path d="M3012 272C3036 295.554 3042.76 330.216 3043.22 362.677C3043.26 368.038 3043.24 373.399 3043.23 378.761C3043.23 381.177 3043.23 383.594 3043.23 386.011C3043.23 391.837 3043.22 397.663 3043.21 403.489C3043.19 410.28 3043.19 417.072 3043.19 423.863C3043.18 435.97 3043.17 448.077 3043.15 460.184C3043.13 471.931 3043.12 483.677 3043.11 495.423C3043.11 496.15 3043.11 496.876 3043.11 497.625C3043.11 501.271 3043.1 504.916 3043.1 508.562C3043.08 538.708 3043.04 568.854 3043 599C3013.63 599 2984.26 599 2954 599C2953.95 586.447 2953.9 573.894 2953.85 560.961C2953.82 552.931 2953.78 544.901 2953.74 536.871C2953.68 524.171 2953.62 511.471 2953.58 498.771C2953.54 489.514 2953.5 480.258 2953.46 471.001C2953.43 466.119 2953.41 461.236 2953.4 456.353C2953.34 436.88 2953.09 417.452 2952.06 398.002C2952.02 397.213 2951.98 396.423 2951.94 395.61C2950.68 372.166 2948.47 346.828 2930 330C2914.39 318.538 2897.08 317.387 2878.35 319.391C2860.71 323.165 2846.35 335.289 2836.1 349.637C2827.73 363.048 2822.66 377.471 2820.31 393.063C2820.19 393.846 2820.07 394.629 2819.95 395.437C2817.84 410.926 2817.85 426.728 2817.79 442.335C2817.79 444.062 2817.78 445.789 2817.76 447.516C2817.74 452.133 2817.72 456.749 2817.7 461.365C2817.67 466.217 2817.65 471.068 2817.62 475.919C2817.57 485.074 2817.53 494.228 2817.48 503.382C2817.42 515.775 2817.36 528.168 2817.29 540.561C2817.19 560.041 2817.1 579.52 2817 599C2787.3 599 2757.6 599 2727 599C2727 481.85 2727 364.7 2727 244C2756.7 244 2786.4 244 2817 244C2817 255.55 2817 267.1 2817 279C2819.5 277.061 2821.99 275.123 2824.56 273.125C2881.68 229.343 2956.84 218.569 3012 272Z" fill="white"/>
<path d="M1954 244C1984.03 244 2014.06 244 2045 244C2045.05 257.943 2045.1 271.885 2045.15 286.25C2045.18 295.118 2045.22 303.987 2045.26 312.855C2045.32 326.911 2045.38 340.966 2045.42 355.022C2045.45 365.262 2045.49 375.502 2045.54 385.742C2045.57 391.155 2045.59 396.567 2045.6 401.979C2043.43 459.6 2043.43 459.6 2067.19 509.75C2079.72 521.584 2093.87 525.31 2110.62 525.438C2111.66 525.448 2112.7 525.458 2113.77 525.469C2129.49 525.291 2143.35 520.308 2154.75 509.34C2175.78 487.433 2175.29 457.149 2175.32 428.592C2175.33 426.56 2175.34 424.527 2175.35 422.494C2175.38 417.053 2175.39 411.613 2175.4 406.172C2175.42 400.457 2175.45 394.742 2175.47 389.028C2175.52 378.241 2175.56 367.454 2175.59 356.667C2175.63 342.066 2175.7 327.465 2175.76 312.864C2175.85 289.909 2175.92 266.955 2176 244C2205.7 244 2235.4 244 2266 244C2266.08 291.773 2266.08 291.773 2266.1 311.949C2266.11 325.824 2266.12 339.7 2266.15 353.575C2266.17 363.685 2266.18 373.794 2266.19 383.904C2266.19 389.245 2266.2 394.586 2266.21 399.926C2266.38 462.451 2264.69 523.419 2219.25 571.125C2193.57 596.076 2157.39 608.031 2121.98 608.203C2121.04 608.209 2120.1 608.215 2119.14 608.22C2117.15 608.23 2115.17 608.236 2113.19 608.24C2110.23 608.25 2107.27 608.281 2104.31 608.312C2087.99 608.404 2071.94 607.01 2056.25 602.25C2054.95 601.867 2054.95 601.867 2053.63 601.476C2019.27 590.975 1992.17 568.191 1974.91 536.859C1960.78 509.153 1956.71 478.702 1955 448C1954.94 446.941 1954.94 446.941 1954.88 445.861C1953.74 425.656 1953.87 405.448 1953.9 385.219C1953.9 380.239 1953.9 375.258 1953.91 370.277C1953.91 360.886 1953.92 351.494 1953.93 342.103C1953.94 329.384 1953.95 316.664 1953.95 303.945C1953.96 283.964 1953.98 263.982 1954 244Z" fill="white"/>
<path d="M1338 113C1367.7 113 1397.4 113 1428 113C1428 156.23 1428 199.46 1428 244C1445.49 244 1462.98 244 1481 244C1481 269.08 1481 294.16 1481 320C1463.51 320 1446.02 320 1428 320C1428 412.07 1428 504.14 1428 599C1398.3 599 1368.6 599 1338 599C1338 506.93 1338 414.86 1338 320C1323.15 320 1308.3 320 1293 320C1293 294.92 1293 269.84 1293 244C1307.85 244 1322.7 244 1338 244C1338 200.77 1338 157.54 1338 113Z" fill="white"/>
<path d="M2525 244C2524.35 247.634 2523.39 250.981 2522.15 254.454C2521.76 255.524 2521.38 256.593 2520.99 257.694C2520.58 258.843 2520.16 259.992 2519.74 261.176C2519.1 262.973 2519.1 262.973 2518.44 264.806C2517.53 267.346 2516.62 269.885 2515.71 272.424C2514.33 276.258 2512.96 280.095 2511.59 283.932C2509.85 288.796 2508.1 293.657 2506.34 298.514C2504.92 302.442 2503.52 306.376 2502.16 310.326C2501.64 311.794 2501.12 313.262 2500.61 314.73C2500.19 315.945 2499.77 317.16 2499.34 318.411C2498 321 2498 321 2496.02 321.952C2492.96 322.025 2490.76 320.876 2488 319.625C2479.16 315.67 2469.58 314.04 2460.07 316.871C2457.54 318.073 2455.3 319.402 2453 321C2452.32 321.461 2451.63 321.923 2450.93 322.398C2433.87 335.582 2428.81 359.738 2426.18 379.936C2423.59 402.078 2423.52 424.152 2423.49 446.418C2423.48 451.803 2423.46 457.188 2423.43 462.573C2423.39 472.719 2423.36 482.864 2423.34 493.01C2423.31 506.757 2423.25 520.503 2423.2 534.249C2423.11 555.833 2423.06 577.416 2423 599C2393.63 599 2364.26 599 2334 599C2334 481.85 2334 364.7 2334 244C2359.41 244 2384.82 244 2411 244C2411.5 263.8 2411.5 263.8 2412 284C2414.31 280.04 2416.62 276.08 2419 272C2431.71 253.898 2450.68 240.484 2472.66 236.344C2491.6 233.565 2507.44 236.872 2525 244Z" fill="white"/>
<path d="M2558 244C2587.7 244 2617.4 244 2648 244C2648 361.15 2648 478.3 2648 599C2618.3 599 2588.6 599 2558 599C2558 481.85 2558 364.7 2558 244Z" fill="white"/>
<path d="M2644 115C2654.25 125.365 2660.17 139.06 2660.33 153.612C2660.32 154.503 2660.32 155.394 2660.31 156.313C2660.31 157.243 2660.3 158.174 2660.3 159.133C2660.18 165.827 2659.59 171.765 2657 178C2656.43 179.435 2656.43 179.435 2655.85 180.898C2649.44 195.305 2638.06 205.382 2623.56 211.375C2611.01 216.131 2594.36 216.025 2581.79 211.332C2576.87 208.982 2572.4 206.216 2568 203C2567.35 202.539 2566.71 202.077 2566.04 201.602C2555.52 193.383 2548.29 180.048 2546 167C2544.94 155.015 2545.07 143.122 2550 132C2550.35 131.198 2550.7 130.396 2551.06 129.57C2558.55 114.538 2572.12 105.244 2587.5 99.75C2608.91 95.1624 2627.8 100.522 2644 115Z" fill="white"/>
</g>
<defs>
<clipPath id="clip0_489_370">
<rect width="3083" height="831" fill="white"/>
</clipPath>
</defs>
</svg>
