<svg width="257" height="124" viewBox="0 0 257 124" fill="none" xmlns="http://www.w3.org/2000/svg">
<path fill-rule="evenodd" clip-rule="evenodd" d="M15.925 37.1314C15.925 38.0714 16.2674 39.6381 17.4661 39.6381C19.1785 39.6381 18.8361 38.3847 20.206 38.3847C20.206 39.4815 19.8635 40.1081 19.3499 40.7348C19.1785 41.2047 17.9799 43.2415 17.6375 43.5549C17.1237 44.0249 13.5277 44.1816 15.925 48.5685C15.2401 49.6651 13.3565 52.3286 13.1853 53.4252C13.699 53.582 13.8702 53.7387 14.2128 54.052C13.8702 54.6787 13.3565 54.8353 13.0141 55.7753C12.6715 56.7153 12.8428 56.872 12.8428 58.1254C12.6715 57.9687 12.5004 57.9687 12.1578 57.9687C9.76053 57.1854 7.87693 57.1854 5.65083 58.4388C5.13712 58.5954 4.79465 58.7521 4.28092 59.0654C3.76721 59.3788 3.59598 59.6921 3.08227 60.0055C2.91103 60.3188 2.91103 60.3188 2.56855 60.6322C1.71237 61.7289 1.02742 62.3556 0.684948 63.9223C0.171237 65.9591 0.513711 68.9358 1.19866 70.6593C1.3699 71.4427 1.54115 71.7558 1.88361 72.3825C2.39732 73.4793 3.08227 74.4193 3.93846 75.3593C4.28092 75.6727 4.79465 76.1427 5.30836 76.4561C5.4796 76.7694 5.65083 76.9261 5.82207 77.0828L8.21939 78.6495C12.6715 81.313 19.0074 82.253 25.5143 82.253C26.8842 82.253 26.3706 82.0963 26.713 84.6031C26.8842 86.1699 27.0556 89.6165 27.2267 91.1833C27.2267 91.6532 27.2267 92.4366 27.398 92.9067C27.398 93.3767 27.398 93.8467 27.398 94.63C27.398 94.63 25.6855 95.2567 24.8294 95.4135C23.9732 95.5702 22.7745 95.5702 21.7471 95.7268L17.8087 96.0401C16.9525 96.0401 16.2674 96.0401 15.4115 96.1969C12.6715 96.5101 8.90434 95.8834 6.67827 97.6069C6.16454 98.0769 5.4796 99.1736 5.4796 99.957C5.4796 100.74 5.65083 101.367 5.65083 101.994C2.91103 102.62 0.342474 105.597 0 108.574V109.827C0 110.297 0.171237 110.924 0.513711 111.394C0.513711 111.707 0.684948 112.021 0.856185 112.177L1.3699 112.961C3.76723 115.154 7.87693 114.214 10.6167 113.117C12.8428 112.177 14.8977 110.924 16.9525 109.671L24.487 105.284C25.1719 104.814 26.028 104.344 26.8842 103.874C26.8842 106.067 25.0007 109.044 24.3156 111.081L23.6307 112.804C22.7745 114.841 22.2609 117.034 22.2609 119.228C22.2609 120.951 23.4596 122.204 24.487 122.831C26.5418 124.084 29.4529 124.241 30.8227 122.361C32.1927 120.324 32.5352 117.974 32.5352 115.311C32.5352 114.214 32.3638 113.274 32.3638 112.334C32.3638 109.671 32.7064 106.694 33.7337 104.5C34.9324 101.994 35.4462 99.017 34.0762 96.5102C33.5625 95.5702 33.3913 94.7868 33.3913 93.69C33.3913 92.4366 33.5625 91.0265 33.7337 89.9299C34.2475 87.1098 34.7612 84.1331 35.6173 81.4696C35.7887 80.8429 36.1311 80.3729 36.1311 79.9029H37.3297C37.3297 80.6863 37.6721 81.7829 37.8435 82.7231C37.8435 83.0363 38.0147 83.3498 38.0147 83.6631C38.3572 86.9532 38.5284 88.5198 38.8708 91.8099C38.8708 92.5934 38.8708 93.3767 38.8708 94.0034C39.0422 94.7868 39.0422 95.5702 39.0422 96.3535C39.0422 96.8234 38.5284 97.1369 38.3572 97.6069C37.501 100.427 38.6997 103.717 41.9533 103.717C45.2066 103.717 46.2341 103.247 49.1452 102.934C53.0836 102.307 57.1934 103.247 60.7893 104.187C61.988 104.5 64.2141 104.97 65.4126 104.814C66.0975 104.814 65.9264 104.814 66.4401 104.657C68.3237 103.874 69.0086 100.584 65.7551 98.7036C65.2415 98.3903 64.7277 98.2336 64.3853 98.0769C63.7003 97.6069 63.0154 95.7268 58.9056 95.7268C57.1934 95.7268 55.481 95.8834 53.9398 96.0401C52.2275 96.1969 49.1452 96.8236 47.4328 96.8236C46.5766 96.9802 43.6655 97.4501 43.6655 95.4135C43.6655 93.22 44.1793 91.34 44.5217 89.3032L46.2341 81.4696C46.4053 80.8429 47.2615 80.6863 47.7753 79.9029C47.9465 79.5895 48.1177 79.2762 48.2889 78.9628C48.8026 78.6495 48.8026 78.9628 49.1452 78.3362C50.0013 77.0828 50.515 77.7095 50.515 76.2994C50.515 74.7326 50.3439 72.696 50.8574 71.5993C51.5424 70.6593 52.3986 70.6593 53.2548 70.0326C54.2823 68.9358 53.0836 67.3691 53.0836 67.0558C53.0836 66.5858 53.7685 65.9591 53.9398 65.6458C54.796 64.549 56.3371 62.3556 56.3371 60.9455C56.3371 59.8489 55.481 57.4987 55.1385 56.2452L54.2823 52.9553C54.2823 52.6419 54.1109 52.172 54.1109 51.7019C54.6247 51.5452 55.1385 51.0752 55.6521 50.7619C55.9947 50.6052 55.9947 50.4485 56.3371 50.4485C56.3371 49.5085 54.796 47.4717 54.4534 46.6883L53.426 44.8082C53.2548 44.6516 52.9124 44.4949 52.9124 44.3383C52.7411 44.1816 52.5699 43.5549 52.2275 43.0849C51.8849 42.6148 50.8574 41.5181 50.6863 40.8914C51.5424 39.6381 52.2275 39.3249 53.2548 36.818C53.426 36.3479 53.5974 35.7214 53.9398 35.2513C54.2823 34.9379 54.6247 34.7812 54.796 34.6246C55.3096 34.3113 56.1659 33.8412 56.3371 33.2145C56.5083 32.5878 56.6796 29.4544 56.6796 28.9843C56.6796 27.8877 56.5083 26.9476 56.5083 26.0076C56.5083 25.3809 56.3371 25.0676 56.3371 24.5975C55.6521 21.7775 56.5083 23.5009 56.8508 21.1508C57.022 19.7407 56.3371 19.4274 57.8783 19.4274C57.7069 17.234 55.8234 15.9806 54.2823 15.1972C53.426 14.7272 53.426 14.2571 53.0836 12.8471C52.5699 11.5938 51.7137 8.77364 50.0013 8.77364C48.9738 8.77364 47.7753 9.40034 46.7479 9.87036C45.0354 10.497 43.1518 11.5938 42.1244 9.55701C41.2682 8.14696 41.097 6.89359 39.0422 7.67694C37.3297 8.46031 36.4736 8.61698 35.7887 6.58023C35.4462 5.48354 35.4462 4.23014 35.2749 2.97677C35.1038 2.19342 35.2749 0.313345 34.2475 0H33.7337C33.2201 0.156673 32.5352 0.470017 31.6789 1.09671C30.8227 1.72339 29.4529 2.66342 28.7678 3.44679C26.5418 5.64019 25.1719 7.52027 23.8021 10.497C22.2609 13.4738 21.5759 16.764 21.2335 20.0541C21.0622 22.5609 20.7197 25.0676 20.0348 27.5743C19.6923 29.4544 19.0074 30.7078 17.9799 32.2745C17.2949 33.528 15.925 35.2513 15.925 37.1314ZM23.6307 67.5258C19.521 73.3225 14.7264 75.046 8.90434 73.0092C12.5004 73.636 17.8087 69.7192 15.7539 62.9823C17.9799 64.0789 20.891 64.8624 22.7745 63.609C22.7745 64.549 22.432 65.6458 22.432 66.7424L23.6307 67.5258Z" fill="black"/>
<path fill-rule="evenodd" clip-rule="evenodd" d="M23.8018 13.9435C28.254 14.5702 29.2815 19.8971 25.6855 19.8971C24.1443 20.0537 23.6307 19.4271 22.6033 18.8004C22.6033 19.4271 22.432 20.5238 22.432 20.9939C23.1169 22.4039 24.4868 22.2473 26.1992 22.5606C28.9389 22.8737 29.1103 26.9473 25.5143 28.0441C23.4594 28.6708 23.1169 27.8873 21.5758 27.2607L21.0621 29.1407C21.5758 29.2973 21.4046 29.9241 22.6033 30.2375C23.2883 30.5508 24.1443 30.5508 24.8293 30.7074C26.1992 31.0208 27.5691 32.2742 26.7129 33.841C25.343 36.6611 19.1785 35.0944 18.8361 33.9976C18.4935 34.311 17.9798 35.4077 17.8086 35.8777C17.4661 36.9744 17.4661 37.2878 17.8086 38.2278C19.6922 38.2278 20.0348 34.1542 22.7745 36.9744C23.6307 37.9145 23.6307 39.011 22.9457 40.1078C22.2608 41.0478 21.747 41.0478 20.2059 41.3611C19.6922 42.4579 19.0072 42.9279 19.0072 44.4946C19.1785 44.4946 19.6922 44.9647 20.0348 44.8079C20.0348 44.8079 20.7197 44.1812 20.8908 44.0246C21.2333 43.7113 21.4046 43.5546 21.5758 43.2412C22.7745 41.8312 24.8293 40.5777 26.5417 39.951C27.9116 39.3244 27.9116 39.4811 28.7678 40.2644C33.3911 44.1812 41.0969 45.5913 46.4052 42.4579C48.2888 41.5179 48.1176 41.5179 49.3163 40.4211C50.6861 39.1677 49.8299 40.1078 50.8574 38.6977C51.7137 37.7577 52.3986 36.5044 52.3986 35.251C51.1999 35.251 50.1725 35.5643 49.4875 36.3477C48.6312 36.9744 48.1176 37.6011 47.0901 38.0711C42.9805 40.2644 38.0146 40.4211 34.4186 37.6011C33.5624 36.9744 32.8775 36.3477 32.3638 35.251C32.1925 34.6243 31.5076 33.0576 31.3363 32.2742C32.5349 32.5875 34.0762 33.841 36.9871 34.6243C39.2133 35.251 41.6105 35.7211 44.0079 35.7211C47.2615 35.7211 51.5423 35.5643 54.1109 33.841C55.1383 33.0576 55.3096 32.2742 55.3096 30.8642C55.6521 28.3573 55.3096 25.8506 54.7958 23.5004C54.1109 21.1505 51.3712 13.9435 50.1725 12.0635C48.1176 9.24335 46.5764 12.2201 44.3504 11.9068C44.179 12.2201 43.4941 12.2201 43.1517 12.3768C43.1517 12.8468 45.8915 16.607 45.8915 17.3904C45.2065 16.7637 44.179 15.5102 43.4941 14.4136C43.1517 13.7869 41.2681 11.4368 41.2681 11.2801C40.9257 11.1234 40.2406 10.3401 39.8982 10.1834C39.3844 9.87005 38.357 9.71337 37.6721 10.0267C36.6447 10.4967 34.4186 12.6901 33.5624 13.4735C32.3638 14.7269 31.85 15.3536 30.8227 16.9203C30.6513 17.2337 30.4802 17.3904 30.1376 17.7037C30.3089 15.9803 32.5349 13.6301 33.5624 12.3768C34.4186 11.5934 35.7884 10.6534 36.3022 9.87005C35.7884 9.08668 35.1035 8.77334 34.7611 7.8333C34.0762 6.42325 34.0762 4.54318 33.3911 3.2898C33.0487 2.81979 32.7063 2.97646 32.1924 3.2898C31.1651 3.60316 30.6513 4.22983 29.9664 4.85653L26.3704 8.77334C25.5143 9.87005 24.1443 12.3768 23.8018 13.9435Z" fill="#80BD25"/>
<path fill-rule="evenodd" clip-rule="evenodd" d="M25.0006 49.3519C25.0006 49.0386 25.0006 48.7252 25.0006 48.4119C25.1718 48.8818 25.1718 49.822 25.5144 50.2919V49.6653C25.8569 49.9786 26.0281 50.9186 26.1993 51.3887C26.5418 51.8587 26.7131 52.4853 27.0556 53.112C27.398 53.8954 27.5691 53.5821 27.9117 54.5221C28.2541 55.3054 28.0829 55.9321 28.0829 56.7155C28.7678 57.1856 29.7953 58.5956 29.4528 60.0056C29.1104 61.1023 28.2541 62.199 27.0556 62.3556C26.8842 62.5124 26.3705 62.6691 25.8569 62.9823C25.8569 66.1159 25.5144 65.6458 27.0556 66.4292C32.0213 68.936 42.2957 68.7792 47.7752 67.526C48.8027 67.2125 49.4876 66.8992 50.5149 66.5858C51.0287 66.4292 50.8574 65.6458 50.6863 64.7058L50.3438 54.8355C50.1725 53.7387 50.0014 51.702 50.1725 50.762L50.3438 51.8587C51.3712 51.8587 53.426 50.4487 54.2823 50.1352C54.2823 49.1952 53.5974 48.2552 53.2548 47.6285C52.9123 47.0018 52.3987 46.0617 52.0561 45.5918C51.5424 44.8084 51.0287 44.3383 50.6863 43.555C50.1725 42.7718 50.5149 43.0849 50.0014 42.6151C49.6588 42.3017 49.4876 41.9884 49.1451 41.675C47.9464 41.9884 46.2341 43.2417 45.7203 44.0251C44.3505 45.9051 45.2067 44.9651 43.8368 46.5318C43.4944 46.8452 43.1519 47.0018 42.9806 47.3151C42.4668 48.0985 40.9257 48.7252 39.727 49.0386C38.1859 49.1952 36.6448 48.8818 35.4462 48.4119C33.7337 47.4718 30.4802 43.7116 29.1104 42.145C28.9392 41.9884 27.9117 41.0483 27.7405 40.8916C26.7131 40.4217 22.6033 43.3983 21.5759 44.6518C20.891 45.5918 21.4046 45.5918 21.4046 46.5318C21.5759 47.1585 21.4046 48.0985 21.4046 48.8818C22.0895 49.0386 22.6033 48.8818 23.2882 49.0386C23.9731 49.1952 24.3157 49.5085 24.8294 49.6653L25.0006 49.3519Z" fill="#E40013"/>
<path fill-rule="evenodd" clip-rule="evenodd" d="M25.8568 71.7563C25.8568 72.383 26.8843 76.4564 27.0555 77.3964C28.083 81.7833 28.9391 87.737 29.2817 92.2804C29.4528 93.2203 29.6241 94.6304 29.4528 95.5705C29.1103 95.7271 28.9391 95.8838 28.4254 96.1972C21.9184 99.0173 9.58927 96.5105 7.36319 99.9573C7.19195 100.271 7.19195 100.584 7.19195 100.897C7.19195 101.211 7.19195 101.211 7.36319 101.211C8.73309 102.151 14.384 100.271 15.925 99.8007C17.2949 99.4873 18.8361 99.174 20.206 98.8606C21.0621 98.8606 21.747 98.7039 22.6033 98.7039C22.9457 98.7039 24.1444 98.8606 24.487 99.0173C24.8295 99.174 24.487 99.0173 24.8295 99.174L24.3157 99.3306C23.802 99.174 18.1511 100.584 17.1237 100.741C14.7265 101.367 12.5003 101.837 9.93174 102.307C7.36319 102.777 5.30833 103.247 3.59595 104.657C2.05483 105.911 1.71234 110.454 2.56854 111.394C6.50699 112.334 13.3564 108.574 16.2675 107.164C18.6649 106.068 26.5417 101.681 28.4254 101.211L29.2817 100.897C29.4528 107.791 21.747 117.035 25.6857 121.108C26.8843 122.361 28.5966 121.421 29.2817 120.481C30.8227 118.288 30.6515 114.841 30.9939 111.708C31.1651 107.634 31.5077 106.851 32.5351 102.934C34.2474 96.0404 32.1926 97.6073 32.3638 94.1604C32.5351 91.027 32.8776 88.0502 33.5625 84.9168C33.905 83.1933 35.1037 77.8665 35.9598 76.9265C35.9598 77.7099 35.6173 78.4932 35.6173 79.2766C37.8434 79.2766 41.6107 76.9265 43.1519 75.9865C44.5218 74.8899 47.7753 71.1296 47.7753 69.7195V69.4062C44.008 69.7195 34.7612 70.8163 31.1651 70.5029C29.4528 70.5029 27.5692 70.033 25.8568 69.8763C25.8568 70.6597 25.8568 71.1296 25.8568 71.7563Z" fill="#80BD25"/>
<path fill-rule="evenodd" clip-rule="evenodd" d="M25.1714 71.1289C24.829 71.4422 25.8565 73.3223 24.3154 73.949C23.4592 74.419 22.0893 73.949 20.8906 73.949C21.918 74.419 22.4317 74.1057 22.7742 75.2025C22.2605 75.5157 21.918 75.6724 21.0619 75.5157C20.5481 75.3591 20.0343 75.0457 19.5207 75.5157C19.007 75.829 18.4933 77.3959 16.9522 76.4557C16.6097 76.1424 16.0959 75.5157 15.5822 75.9858C15.0686 76.1425 14.8973 76.7692 14.2123 76.7692C13.3562 76.7692 13.0138 75.3591 11.4725 75.6724C11.3013 76.1424 11.3013 76.4557 10.9588 76.9258C9.76017 76.7692 9.76017 75.9858 9.41768 75.5157L9.24646 75.3591C8.90397 75.6724 9.24646 75.6724 8.90397 75.829C8.73275 75.829 8.39027 75.829 8.21902 75.829C7.70531 75.829 7.02037 73.7924 6.50665 72.8523L6.16419 72.539C0.684585 69.4054 2.91068 60.1618 8.73275 59.5352C13.3562 59.2218 15.5822 64.0787 14.0411 67.9953C13.5273 69.4054 11.8151 70.9723 10.2739 71.4422C6.16418 72.6956 2.91068 67.6821 5.308 63.7653C7.70531 59.5352 13.1848 60.9452 13.1848 65.4888C13.1848 67.5254 11.8151 69.2488 10.2739 69.8755C8.0478 70.6588 6.16419 69.0921 5.99294 67.212C5.65047 64.8621 7.02037 63.1387 9.07522 62.9819C11.4725 62.8253 12.3287 65.3321 11.1301 67.212C9.76017 69.0921 6.84913 68.4654 7.36285 65.9587C7.53408 65.0187 8.39028 64.0787 9.41768 64.7054C10.7876 65.1754 10.1026 66.8987 9.24646 66.5853C9.58893 66.272 9.93141 66.4286 9.93141 65.9587C9.76017 65.4888 9.58893 65.1754 9.24646 65.0187C8.21902 64.7054 7.70531 65.4888 7.70531 66.4286C7.70531 68.3088 10.1026 68.1521 10.7876 66.7421C11.4725 65.4888 11.1301 63.1387 8.73275 63.452C5.47925 63.9221 5.65047 70.3455 9.76017 69.4054C13.1848 68.6221 13.3562 63.6086 10.9588 62.1986C8.21903 60.6319 4.79428 63.2954 4.96552 67.0554C5.47925 72.8523 13.0138 72.2255 14.0411 66.4286C14.5549 62.9819 12.1575 59.6919 8.73275 60.1618C4.28057 60.6319 1.71201 67.0553 5.13676 70.9723C5.82171 71.9123 7.70531 72.6956 9.41768 72.6956C14.0411 72.539 17.1233 67.0554 14.726 62.1986C14.0411 60.9452 13.1848 59.8485 11.8151 59.2218C8.39027 57.8117 4.79429 59.6919 3.42439 61.5719C1.1983 64.0787 1.02706 67.0554 2.39695 70.5022C3.76686 73.6356 5.47925 75.0457 7.87656 76.7692C9.76017 78.1792 13.6986 79.4326 16.4384 80.0592C19.5207 80.6859 23.8016 81.156 27.0552 80.8426C27.0552 79.4325 26.3701 77.3959 26.199 75.9858C25.8565 74.419 25.514 72.6956 25.1714 71.1289Z" fill="#80B627"/>
<path fill-rule="evenodd" clip-rule="evenodd" d="M38.5283 80.3727C38.5283 80.8428 39.2132 85.3861 39.3846 86.1695C39.5557 88.2063 39.727 90.243 39.8981 92.2798C40.2406 95.5699 40.2406 95.2566 39.5557 98.2334C39.0419 100.427 40.0695 101.837 42.1243 102.307C45.3778 102.777 46.7476 100.583 54.2821 101.68C56.6795 101.993 63.5288 103.874 65.5838 103.403C66.0975 103.247 66.4399 103.247 66.4399 102.62C66.4399 101.993 66.4399 101.523 66.2688 101.054C64.7275 97.7633 55.4808 98.0767 52.3985 98.2334C50.1725 98.2334 45.2066 98.5467 43.4941 97.1367C42.638 96.51 42.638 95.8833 42.8092 94.6299C42.9805 90.713 44.0079 86.9529 44.6928 83.0362C44.864 82.2529 45.2066 80.9994 45.0354 80.0593C44.6928 78.6494 45.3778 78.1793 45.2066 77.2393C45.549 75.6725 44.5216 76.6126 44.0079 77.0825C42.2955 78.336 41.6105 79.4327 38.5283 79.9027V80.3727Z" fill="#80BD25"/>
<path fill-rule="evenodd" clip-rule="evenodd" d="M22.603 56.8721C23.6306 55.1487 26.5417 56.0887 27.3977 55.9321C28.0827 54.9919 27.0553 53.8954 26.5417 53.582C25.5141 52.9554 24.8292 52.7986 23.4593 52.642C24.1443 52.1719 25.1717 52.4854 26.0279 52.4854C26.0279 50.6052 23.8017 49.9785 21.7469 49.9785C16.6098 50.1353 14.0413 56.8721 16.781 61.2589C16.9523 61.5723 17.1236 62.0423 17.4661 62.3557C17.8085 62.8256 19.5209 64.079 21.062 63.4523C21.2332 63.2957 21.9181 62.9824 22.0895 62.8256C23.1168 61.8856 23.2882 62.199 24.8292 62.0423C26.3704 62.0423 28.939 61.8856 28.939 59.3789C28.939 57.1855 27.0553 56.5588 25.343 56.2454C23.9731 56.0887 23.6306 56.402 22.603 56.8721Z" fill="#FCFCFE"/>
<path fill-rule="evenodd" clip-rule="evenodd" d="M32.7065 19.1142C32.1929 20.8376 31.8504 22.5611 32.7065 24.2844C34.9327 28.6713 42.6384 27.7313 43.4945 22.2476C43.837 18.9576 41.9534 17.5475 41.6109 16.7642C39.556 16.6074 38.5287 16.4507 36.4738 16.9208C34.9327 17.3909 33.3915 18.1742 32.7065 19.1142Z" fill="#FCFCFE"/>
<path fill-rule="evenodd" clip-rule="evenodd" d="M11.4731 75.8293C11.4731 76.2994 11.4731 76.6126 10.9594 76.9259V77.0827C9.76073 76.9259 9.76073 76.2994 9.24702 75.6726C9.24702 75.6726 9.24702 75.8293 8.90456 75.9859C8.73331 75.9859 8.39085 76.1426 8.04836 75.9859C7.7059 75.8293 6.67846 73.4792 6.33599 73.0092L5.82227 72.3825C12.6718 75.8293 19.0075 74.8893 23.6309 68.4657C23.8021 68.1524 23.9734 67.6823 24.4872 67.5257C24.4872 67.369 24.6584 67.5257 24.6584 67.5257C25.0008 68.9356 25.0008 70.5023 25.3434 71.9124C25.3434 72.5391 25.5145 73.6359 24.4872 74.1058C23.8021 74.4192 23.1173 74.2626 22.4324 74.2626C22.6035 74.4192 22.7748 74.5759 22.946 75.2026L22.7748 75.3592C22.0899 75.6726 21.9186 75.8293 21.0623 75.6726C20.5488 75.5159 20.035 75.2026 19.5213 75.6726C18.665 76.1426 18.4938 77.5526 16.7814 76.6126C16.439 76.2994 16.0965 75.8293 15.5829 76.1426C15.0691 76.456 15.0691 77.0827 14.2128 76.9259C13.3567 76.9259 13.0143 75.6726 11.4731 75.8293Z" fill="#62A531"/>
<path fill-rule="evenodd" clip-rule="evenodd" d="M42.2956 56.4025V56.2458C42.2956 56.4025 42.2956 56.2458 42.1245 56.2458C41.9532 55.9324 41.9532 55.6191 41.0971 55.4623C40.0696 55.3057 39.5559 55.4623 39.5559 54.9924C40.0696 54.679 41.6107 54.8358 42.2956 54.8358L42.9807 52.6422C41.9532 52.799 40.9258 52.799 39.8984 52.799C38.871 52.799 38.186 53.1123 37.8434 53.8956C37.501 54.5223 37.501 55.7758 38.0148 56.4025C38.5286 57.3425 39.8984 56.7158 40.412 57.0292C40.2408 57.4991 40.0696 57.3425 39.0421 57.3425C38.5286 57.3425 38.0148 57.3425 37.501 57.3425L36.4736 59.2226C37.501 59.2226 39.5559 59.2226 40.5834 59.0658C41.6107 58.9092 42.2956 58.1258 42.2956 56.8724C42.6382 57.1858 42.6382 57.6559 42.8094 57.9692C43.1519 58.2825 43.4943 58.5959 43.8369 58.7525C44.1794 59.0658 44.5218 59.0658 45.2067 59.0658L46.2342 58.9092C46.7479 58.7525 46.5766 58.5959 46.5766 57.1858C45.7205 57.1858 44.693 57.3425 44.3506 56.5591C44.1794 55.7758 44.693 54.8358 45.2067 54.5223C46.2342 54.209 46.2342 54.9924 47.0903 53.739C47.4329 53.2689 48.1178 52.6422 48.1178 52.0156C47.4329 52.0156 46.5766 52.1723 45.8916 52.3289C44.8643 52.3289 44.5218 52.3289 43.8369 52.799C42.9807 53.4257 42.2956 54.679 42.2956 56.4025Z" fill="#AB1D24"/>
<path fill-rule="evenodd" clip-rule="evenodd" d="M50.515 67.3688C51.0287 68.1523 51.7136 66.8989 52.0561 66.5855C52.3985 65.9588 52.741 65.489 53.2548 64.8623C53.9396 63.9223 55.1383 62.0421 55.1383 60.7887C54.9671 59.0654 53.0835 52.7984 52.3985 51.8584C51.8848 51.8584 50.8575 52.3283 50.6861 52.6418C50.3437 52.955 50.515 54.6785 50.515 55.1485C50.6861 56.8719 51.1999 57.8119 51.8848 59.222C53.0835 61.8855 52.2274 60.9454 51.3712 62.9821C50.8575 64.3922 51.5424 66.1156 51.1999 66.7423C51.0287 67.2122 50.6861 67.0556 50.515 67.3688Z" fill="#80BD25"/>
<path fill-rule="evenodd" clip-rule="evenodd" d="M46.919 37.1318C45.2066 36.3484 41.2681 36.0352 39.2132 35.7217C36.816 35.2518 32.8774 33.5283 32.3638 33.5283C32.8774 39.6386 45.7203 40.422 46.919 37.1318Z" fill="#D81218"/>
<path fill-rule="evenodd" clip-rule="evenodd" d="M31.165 58.4384C31.165 59.6917 31.165 59.3784 33.9049 59.3784C37.8433 59.5351 38.5283 55.4617 36.3022 53.5817C35.6173 53.1116 34.4186 52.6417 33.22 52.7983C33.0486 52.7983 31.3364 54.365 31.3364 54.6783C31.165 54.8351 31.165 57.9684 31.165 58.4384Z" fill="#AB1D24"/>
<path fill-rule="evenodd" clip-rule="evenodd" d="M18.8359 33.9974C19.1784 35.0942 25.343 36.6609 26.7129 33.8408C27.569 32.2742 26.1992 31.0208 24.8293 30.7073C24.1444 30.5507 23.2882 30.5507 22.6033 30.2374C21.4046 29.924 21.5758 29.2973 21.062 29.1406C20.7195 30.0806 20.5484 30.8641 20.0346 31.6475C19.6922 32.4308 19.0073 33.3707 18.8359 33.9974Z" fill="#F0E800"/>
<path fill-rule="evenodd" clip-rule="evenodd" d="M21.5757 27.2611C23.117 27.8878 23.4594 28.671 25.5142 28.0445C29.1102 26.9478 28.939 22.8743 26.1991 22.561C24.4868 22.2476 23.117 22.4042 22.4319 20.9941C22.2607 21.4642 22.2607 23.501 22.0895 24.2843C21.9183 25.2243 21.7469 26.3211 21.5757 27.2611Z" fill="#DA0075"/>
<path fill-rule="evenodd" clip-rule="evenodd" d="M50.5152 66.5857C49.4876 66.8991 48.8027 67.2124 47.7753 67.5258C42.2957 68.7791 32.0215 68.9359 27.0556 66.429C25.5145 65.6457 25.8569 66.1157 25.8569 62.9822C26.3707 62.6689 26.8844 62.5121 27.0556 62.3555C26.3707 62.5121 24.3159 62.5121 23.9734 62.6689C23.4596 63.2956 23.1172 65.489 23.1172 66.429C25.5145 68.1524 33.7339 68.9357 36.8161 68.9357C40.2409 69.0925 44.5219 68.9359 47.7753 67.9957C48.6315 67.6824 50.1727 67.2124 50.5152 66.5857Z" fill="#A51F25"/>
<path fill-rule="evenodd" clip-rule="evenodd" d="M2.56836 111.394C2.91083 112.49 4.45198 112.804 5.82187 112.647C10.4453 112.02 18.3222 107.32 22.4319 104.97L27.0553 102.307C27.2265 102.15 27.569 101.993 27.7403 101.837C28.0828 101.68 28.2539 101.523 28.4252 101.21C26.5416 101.68 18.6647 106.067 16.2673 107.164C13.3562 108.574 6.50682 112.334 2.56836 111.394Z" fill="#62A531"/>
<path fill-rule="evenodd" clip-rule="evenodd" d="M25.8569 71.7558C25.8569 71.1291 25.8569 70.659 25.8569 69.8756C27.5693 70.0323 29.453 70.5024 31.1653 70.5024C34.7612 70.8156 44.0081 69.719 47.7753 69.4056V69.719C47.9466 69.4057 47.9466 68.779 47.9466 68.4656C46.0629 68.6222 44.1793 69.0923 42.467 69.2489C40.412 69.4056 38.3572 69.4056 36.3025 69.4056C33.3914 69.2489 30.6516 69.0923 27.9118 68.4656C27.2269 68.3089 25.8569 67.8389 25.3433 67.8389C25.3433 68.1523 25.6857 71.2857 25.8569 71.7558Z" fill="#62A531"/>
<path fill-rule="evenodd" clip-rule="evenodd" d="M31.5077 59.0652C31.8501 59.2219 32.8776 59.2219 33.2201 59.0652V54.6783C34.5901 54.5216 35.7887 54.9917 35.6174 56.2451C35.6174 56.715 35.275 57.1851 34.9326 57.3417C34.4188 57.6552 34.0763 57.4984 33.5625 57.6552L33.3914 59.0652C37.6723 60.0052 38.871 53.8949 34.7612 53.1115C34.2475 52.9549 33.3914 52.7983 33.0488 53.1115C32.7064 53.425 32.3639 53.7382 32.0215 54.0517C31.5077 54.5216 31.5077 54.365 31.5077 55.305C31.5077 56.0883 31.3366 58.5952 31.5077 59.0652Z" fill="#FFFEFE"/>
<path fill-rule="evenodd" clip-rule="evenodd" d="M22.6035 18.8012C23.631 19.4279 24.1448 20.0545 25.6859 19.8979C29.2819 19.8979 28.2544 14.571 23.8022 13.9443C23.2885 15.6677 23.1173 16.9211 22.6035 18.8012Z" fill="#008DCF"/>
<path fill-rule="evenodd" clip-rule="evenodd" d="M47.9465 77.2394V78.4927C48.8027 78.3361 48.6314 77.2393 48.9738 76.456H49.1452C49.3164 76.456 49.1452 76.456 49.4876 76.6127C50.3438 75.8294 49.6589 73.6358 50.1725 72.0693C50.1725 71.4425 50.6863 71.1293 50.6863 70.8158C50.6863 70.0325 50.0013 70.3459 49.8301 70.6592C49.4876 71.1293 49.3164 71.4425 49.1452 71.756C48.4603 72.696 46.4054 75.2027 46.2341 75.986C45.8917 76.7694 45.7205 77.866 45.5492 78.9628C45.3779 81.1562 46.5766 80.6862 47.4327 78.4927C47.6041 78.0228 47.7753 77.5527 47.9465 77.2394Z" fill="#FFFEFE"/>
<path fill-rule="evenodd" clip-rule="evenodd" d="M40.5831 56.8717L40.4119 57.4984C39.8982 57.6551 38.3569 57.4984 37.672 57.4984L36.8159 58.9085C38.5283 59.0651 41.0969 59.3786 41.953 57.9685C42.2956 57.1851 42.1243 56.0884 41.4394 55.7751C40.7543 55.305 39.2132 55.9317 39.3845 54.8349C39.8982 54.365 41.268 54.5217 42.1243 54.5217L42.6381 52.9551C41.6104 52.9551 40.7543 52.9551 39.8982 52.9551C37.1584 53.1117 37.672 55.7751 38.1858 56.4018C38.8707 57.0284 39.727 56.5584 40.5831 56.8717Z" fill="#FFFEFE"/>
<path fill-rule="evenodd" clip-rule="evenodd" d="M31.8504 19.5843C32.0216 19.5843 32.0216 19.4277 31.8504 20.211C31.6792 20.9944 31.6792 21.9344 31.6792 22.7177C31.8504 23.6579 32.1929 24.5979 32.5353 25.2246C35.1039 29.298 42.2959 28.9847 43.6658 24.5979C43.837 23.8145 44.0082 22.4045 43.6658 21.6211L43.4946 22.2478C42.6383 27.7313 34.9326 28.6714 32.7065 24.2845C31.8503 22.5611 32.1929 20.8377 32.7065 19.1143C32.5353 19.1143 32.3641 19.2709 32.1929 19.2709L32.0216 19.4277C31.8504 19.5843 31.8504 19.4277 31.8504 19.5843Z" fill="#62A531"/>
<path fill-rule="evenodd" clip-rule="evenodd" d="M25.0005 49.3518L24.8293 49.6651C24.3155 49.5084 23.9731 49.1951 23.2882 49.0383C22.6033 48.8817 22.0895 49.0383 21.4046 48.8817C21.4046 48.0983 21.5758 47.1585 21.4046 46.5318C21.4046 45.5916 20.8908 45.5916 21.5758 44.6516C22.6033 43.3982 26.7128 40.4214 27.7404 40.8915C27.9115 41.0482 28.9389 41.9882 29.1102 42.1449C30.4801 43.7116 33.7336 47.4716 35.446 48.4116C36.6447 48.8817 38.1858 49.1951 39.727 49.0383C40.9255 48.7251 42.4667 48.0983 42.9805 47.315C42.1242 47.6283 41.268 48.5684 39.0421 48.5684C35.7884 48.7251 34.2474 46.6884 32.3637 44.8083C30.9939 43.3982 29.7952 41.8315 28.5965 40.5781C27.9115 40.1081 27.7404 39.9515 26.7128 40.4214C23.1168 42.3016 23.2882 42.3016 20.7195 44.9651C19.8633 45.7484 20.3771 45.7484 20.7195 46.8451C20.8908 47.6283 20.8908 48.8817 21.4046 49.0383C22.0895 49.3518 22.9457 49.0383 25.0005 49.9785V49.3518Z" fill="#CB151D"/>
<path fill-rule="evenodd" clip-rule="evenodd" d="M17.9798 50.7624C18.3224 50.6056 18.8361 50.2923 19.1785 49.9789C19.6923 49.6656 20.206 49.6656 20.5484 49.3523C20.7198 48.2555 20.3772 47.0022 19.8635 46.0622C19.3499 45.1222 18.6648 44.4955 17.1238 44.9655C16.7813 44.9655 16.7812 45.1222 16.61 45.4355C16.4388 45.5922 16.4388 45.9056 16.2676 46.2189C16.2676 46.8456 16.61 47.3156 16.9525 47.7854C17.1238 47.9422 17.1238 48.0989 17.2949 48.4122C17.6374 49.1955 17.8087 48.7256 17.9798 50.7624Z" fill="#F9F9F9"/>
<path fill-rule="evenodd" clip-rule="evenodd" d="M46.2342 58.7517L46.4056 57.3417C45.8918 57.3417 43.8369 57.6551 44.1794 55.775C44.3506 54.3649 45.2069 54.3649 46.5767 54.2083C46.748 54.0516 47.7754 52.4848 47.9466 52.3281C45.5493 52.3281 43.3231 52.3281 42.6383 54.9916C42.2958 56.0884 42.6382 57.3417 43.3231 57.9684C44.0082 58.9085 44.8643 58.9085 46.2342 58.7517Z" fill="#FFFEFE"/>
<path fill-rule="evenodd" clip-rule="evenodd" d="M48.9736 97.6068C49.8299 97.9202 57.1932 97.9202 59.248 97.9202C60.4467 97.9202 61.474 98.2335 62.5014 98.2335C61.8165 94.7867 49.6585 97.2935 48.9736 97.6068Z" fill="#62A531"/>
<path fill-rule="evenodd" clip-rule="evenodd" d="M45.2066 43.712C44.1791 43.8687 44.1791 44.3386 43.6656 44.8087C42.2955 46.3754 39.8983 47.1587 37.6721 46.8454C34.0761 46.2187 33.5625 42.9285 31.3364 42.6152L32.535 44.3386C35.4461 47.3155 38.0147 49.5089 42.4669 46.8454C43.323 46.3754 44.8642 44.9653 45.2066 43.712Z" fill="#CA151D"/>
<path fill-rule="evenodd" clip-rule="evenodd" d="M43.1517 44.3382C41.4393 44.3382 40.2406 44.8082 38.357 44.6515C36.816 44.6515 35.6173 44.0248 34.0762 43.8682C34.4186 45.4349 38.5284 47.6283 42.2956 45.2782C42.8092 44.9648 42.9806 44.9648 43.1517 44.3382Z" fill="#619633"/>
<path fill-rule="evenodd" clip-rule="evenodd" d="M7.36328 101.211C7.87699 102.621 9.41812 101.994 11.3018 101.681C12.8429 101.367 14.2128 101.054 15.5826 100.741C17.8088 100.271 20.8911 99.644 23.2883 99.3306C23.4597 99.174 23.6308 99.174 23.8021 99.174C23.9732 99.174 24.1446 99.174 24.3157 99.3306L24.8295 99.174C24.487 99.0174 24.8295 99.174 24.487 99.0174C24.1446 98.8607 22.9459 98.7041 22.6035 98.7041C21.7472 98.7041 21.0623 98.8607 20.2062 98.8607C18.8361 99.174 17.2951 99.4873 15.9251 99.8006C14.384 100.271 8.73318 102.151 7.36328 101.211Z" fill="#62A531"/>
<path fill-rule="evenodd" clip-rule="evenodd" d="M36.8159 19.4273C34.0759 19.7408 34.7609 23.0308 37.1583 22.8742C39.5556 22.7175 38.8707 18.9574 36.8159 19.4273Z" fill="#0B0202"/>
<path fill-rule="evenodd" clip-rule="evenodd" d="M32.3638 18.4876C33.0487 18.1743 33.5625 17.861 34.2474 17.391C34.9324 17.0776 35.6173 16.7643 36.4735 16.6077C38.1859 16.1376 39.8981 16.2943 41.7819 16.6077C41.0968 15.8242 37.6721 14.8842 36.1311 15.1976C34.0761 15.3543 33.22 16.921 32.3638 18.4876Z" fill="#62A531"/>
<path fill-rule="evenodd" clip-rule="evenodd" d="M38.5285 80.3725V79.9025C41.6108 79.4325 42.2958 78.3358 44.0081 77.0824C44.5219 76.6123 45.5493 75.6723 45.2068 77.239C45.378 77.239 45.378 77.239 45.378 77.239L45.7204 75.6723C44.0081 75.5157 44.3507 75.9856 42.1245 77.3957C40.7547 78.3358 38.6999 79.1192 38.3574 79.2758L38.5285 80.0592C38.5285 80.6859 38.3574 79.7459 38.5285 80.2158C38.5285 80.2158 38.5285 80.2158 38.5285 80.3725Z" fill="#62A531"/>
<path fill-rule="evenodd" clip-rule="evenodd" d="M52.3986 67.8394C51.5425 67.8394 51.5425 68.1527 50.8575 67.996C50.1726 67.996 50.1726 67.6826 49.6588 67.6826C47.4329 68.1527 49.8301 70.6595 52.2274 69.7194C53.5973 69.2495 52.9124 68.4661 52.3986 67.8394Z" fill="#FFFEFE"/>
<path fill-rule="evenodd" clip-rule="evenodd" d="M45.2065 75.0465C46.7477 74.7331 49.1451 71.2864 49.6588 70.033C49.3162 69.5629 48.9737 69.4062 48.2888 69.4062C48.4602 71.1296 45.5491 73.7931 45.2065 75.0465Z" fill="#FFFEFE"/>
<path fill-rule="evenodd" clip-rule="evenodd" d="M53.7686 18.9571C53.7686 19.2704 54.796 21.7771 54.9671 22.2472C56.3372 21.6204 56.337 20.5238 56.337 18.9571C55.3097 18.6437 54.4536 18.1736 53.7686 18.9571Z" fill="#FFFEFE"/>
<path fill-rule="evenodd" clip-rule="evenodd" d="M16.4386 62.3557C16.2674 61.2591 14.7263 59.8492 15.0687 56.7156C15.0687 56.2457 15.4112 55.1489 15.2401 54.8356C14.7263 54.679 14.7263 54.9923 14.555 55.3055C13.6989 57.029 14.0414 59.2224 15.0687 60.7892C15.2401 61.1026 15.4112 61.2591 15.5825 61.5724C15.925 62.0424 15.7537 62.1991 16.4386 62.3557Z" fill="#FCFCFE"/>
<path fill-rule="evenodd" clip-rule="evenodd" d="M53.7684 18.9578C54.4533 18.1744 55.3095 18.6445 56.3368 18.9578C55.9944 18.0178 55.652 17.5477 55.1381 17.0777C54.6245 16.7644 53.7684 16.2943 52.9121 16.4511C52.9121 17.2344 53.4258 18.4877 53.7684 18.9578Z" fill="#619633"/>
<path fill-rule="evenodd" clip-rule="evenodd" d="M44.3504 11.907L42.1243 12.2203C41.7819 11.5936 41.9531 11.5936 41.2681 11.2803C41.2681 11.437 43.1517 13.787 43.4942 14.4137C44.1791 15.5104 45.2066 16.7639 45.8916 17.3904C45.8916 16.6071 43.1517 12.847 43.1517 12.377C43.4942 12.2203 44.1791 12.2203 44.3504 11.907Z" fill="#2B3F20"/>
<path fill-rule="evenodd" clip-rule="evenodd" d="M33.3911 57.342C34.5898 57.4986 35.4461 57.1853 35.4461 56.0887C35.4461 55.1487 34.5898 54.6786 33.5625 54.8354L33.3911 57.342Z" fill="#E40013"/>
<path fill-rule="evenodd" clip-rule="evenodd" d="M32.3639 18.4871C32.3639 18.8005 31.8501 19.1138 31.679 19.2705C31.5076 19.4272 30.9938 20.0538 30.8228 20.2106C31.1652 19.8972 31.5076 19.7405 31.8501 19.5839C31.8501 19.4272 31.8501 19.5839 32.0215 19.4272L32.1925 19.2705C32.3639 19.2705 32.535 19.1138 32.7063 19.1138C33.3912 18.1738 34.9325 17.3905 36.4735 16.9205C38.5285 16.4505 39.5558 16.6072 41.6106 16.7639L42.638 16.9205L41.7819 16.6072C39.8983 16.2938 38.1859 16.1372 36.4735 16.6072C35.6174 16.7639 34.9325 17.0772 34.2474 17.3905C33.5625 17.8604 33.0488 18.1738 32.3639 18.4871Z" fill="#355125"/>
<path fill-rule="evenodd" clip-rule="evenodd" d="M46.2339 29.2974C46.2339 30.0807 46.2339 30.394 46.9188 30.5508C47.6037 30.8641 48.2887 30.5508 48.4599 30.0807C48.9736 28.6707 46.5763 28.2006 46.2339 29.2974Z" fill="#0E1908"/>
<path fill-rule="evenodd" clip-rule="evenodd" d="M15.4116 53.1117L16.0965 53.2685L17.124 51.7018C17.4664 51.0751 17.8089 50.135 17.2952 49.665C16.9528 49.8217 16.7814 49.9783 16.6103 50.2917C16.439 50.4484 16.2679 50.9183 16.2679 51.2317C15.9254 51.8585 15.4116 52.1717 15.4116 53.1117Z" fill="#C9161E"/>
<path fill-rule="evenodd" clip-rule="evenodd" d="M53.7685 28.0441C52.3986 28.3576 52.741 29.9243 53.9397 29.4542C55.1384 29.1409 54.9672 27.7308 53.7685 28.0441Z" fill="#121A09"/>
<path d="M68.1025 42.7381V23.498L75.3594 16.207V42.7381H68.1025ZM76.7294 36.1559C76.7294 36.1897 76.7971 36.2065 76.9325 36.2065C77.1016 36.2065 77.3045 36.1897 77.5415 36.1559C77.812 36.1559 78.1166 36.1559 78.4549 36.1559C78.8269 36.1559 79.2498 36.1559 79.7235 36.1559C81.4151 36.1559 82.8358 35.5146 83.9862 34.2321C85.1364 32.9494 85.7284 31.4811 85.7623 29.827C85.796 28.0042 85.1364 26.4348 83.7831 25.1184C82.43 23.8019 80.806 23.1437 78.9115 23.1437C78.7425 23.1437 78.5564 23.1437 78.3532 23.1437C78.1842 23.1437 78.0149 23.1437 77.8459 23.1437C77.6428 23.1437 77.423 23.1437 77.1861 23.1437C76.9832 23.1437 76.7803 23.1437 76.5772 23.1437C76.2389 23.1774 75.9514 23.1943 75.7145 23.1943C75.4777 23.1943 75.3594 23.1943 75.3594 23.1943L75.4101 16.207C75.4101 16.2408 75.4609 16.2577 75.5623 16.2577C75.6638 16.2577 75.816 16.2577 76.0189 16.2577C76.2559 16.2915 76.5603 16.3083 76.9325 16.3083C77.3383 16.3083 77.8289 16.3083 78.4042 16.3083C82.3285 16.3083 85.7116 17.6079 88.5532 20.207C91.4288 22.8061 92.8329 26.0127 92.7653 29.827C92.7314 33.3037 91.5304 36.3248 89.1622 38.8901C86.794 41.4554 83.7831 42.7381 80.1293 42.7381C79.9603 42.7381 79.7574 42.7381 79.5205 42.7381C79.3175 42.7381 79.1145 42.7381 78.9115 42.7381C78.3703 42.7381 77.8627 42.7381 77.3892 42.7381C76.9493 42.7381 76.7294 42.7381 76.7294 42.7381V36.1559ZM115.778 16.207C115.811 16.3083 115.828 17.5235 115.828 19.8525C115.828 22.1479 115.828 24.6795 115.828 27.4473C115.828 28.3926 115.811 29.3207 115.778 30.2322C115.778 31.1435 115.778 32.0211 115.778 32.865C115.744 35.7341 114.661 38.1644 112.53 40.1559C110.399 42.1475 107.878 43.1432 104.969 43.1432C102.093 43.1432 99.6066 42.1475 97.5091 40.1559C95.4115 38.1644 94.3629 35.7341 94.3629 32.865C94.3629 32.3923 94.3629 31.8861 94.3629 31.346C94.3629 30.806 94.3629 30.2657 94.3629 29.7257C94.3629 28.1731 94.3629 26.7554 94.3629 25.4727C94.3629 24.19 94.3629 23.5487 94.3629 23.5487L101.67 16.207V32.865C101.738 33.8101 102.093 34.6033 102.736 35.2447C103.413 35.8522 104.208 36.1559 105.121 36.1559C106.034 36.1559 106.829 35.8522 107.506 35.2447C108.216 34.6033 108.572 33.8269 108.572 32.9155C108.572 32.0042 108.572 30.9915 108.572 29.8776C108.572 28.7301 108.572 27.5824 108.572 26.4348C108.572 25.1184 108.572 23.8355 108.572 22.5866C108.572 21.3377 108.572 20.2408 108.572 19.2957C108.572 18.3842 108.572 17.6585 108.572 17.1185C108.572 16.5446 108.572 16.2577 108.572 16.2577L115.778 16.207ZM124.654 42.7381V23.0424L131.961 16.207V23.0931V42.7381H124.654ZM134.296 23.0931H117.956L124.857 16.207H141.198L134.296 23.0931ZM136.121 42.7381V34.1306L154.036 16.207H160.327V42.7381H153.019V39.3459H141.5L148.047 32.865H153.019V25.827L136.121 42.7381Z" fill="white"/>
<path d="M75.0776 53.9132C75.0776 53.947 75.0776 53.9805 75.0776 54.0144C75.0776 54.0144 75.0776 54.0313 75.0776 54.0651C75.0776 54.0989 75.0776 54.1324 75.0776 54.1662C75.0776 54.7402 75.2975 55.1621 75.7374 55.432C76.2109 55.6683 76.7185 55.8034 77.2597 55.8372C77.3951 55.8709 77.5134 55.8878 77.6149 55.8878C77.7502 55.8878 77.8687 55.8878 77.9702 55.8878C80.5751 55.8878 82.6557 56.6642 84.212 58.2168C85.802 59.7359 86.6138 61.6429 86.6476 63.9382C86.6815 66.1996 85.8864 68.1407 84.2627 69.7608C82.6726 71.3811 80.7443 72.208 78.4775 72.2418C77.9363 72.2755 77.3443 72.2925 76.7014 72.2925C76.0587 72.2925 75.3991 72.2925 74.7225 72.2925C74.5532 72.2925 74.3671 72.2925 74.1642 72.2925C73.9949 72.2925 73.8091 72.2925 73.6059 72.2925C72.8617 72.2925 72.1513 72.2925 71.4747 72.2925C70.798 72.2925 70.206 72.2925 69.6985 72.2925C69.1911 72.2587 68.7851 72.2418 68.4806 72.2418C68.1761 72.2418 68.0239 72.2418 68.0239 72.2418V65.6091C68.0239 65.6429 68.3454 65.6596 68.9882 65.6596C69.6309 65.6596 70.426 65.6596 71.3731 65.6596C71.9144 65.6934 72.4726 65.7102 73.0477 65.7102C73.6569 65.7102 74.2825 65.7102 74.9254 65.7102C75.3991 65.7102 75.8726 65.7102 76.3463 65.7102C76.8537 65.7102 77.3273 65.7102 77.7673 65.7102C78.207 65.7102 78.5622 65.5584 78.8329 65.2546C79.1373 64.9171 79.3064 64.5627 79.3402 64.1914C79.3402 64.1576 79.3402 64.1408 79.3402 64.1408C79.3402 64.107 79.3402 64.0732 79.3402 64.0395C79.3402 64.0057 79.3402 63.9889 79.3402 63.9889C79.3402 63.9551 79.3402 63.9382 79.3402 63.9382C79.3064 63.4657 79.1205 63.1111 78.7822 62.875C78.4775 62.6387 78.0209 62.5205 77.4119 62.5205C74.8069 62.5205 72.6419 61.7104 70.9165 60.0902C69.225 58.4363 68.379 56.4279 68.379 54.0651C68.379 53.9976 68.379 53.93 68.379 53.8625C68.379 53.795 68.379 53.7443 68.379 53.7106C68.4806 51.4827 69.3602 49.6094 71.0179 48.0905C72.7094 46.5377 74.6715 45.7614 76.9046 45.7614C77.7841 45.7614 78.7144 45.7614 79.6955 45.7614C80.6767 45.7614 81.6745 45.7614 82.6894 45.7614C85.3622 45.7614 87.798 45.7614 89.9969 45.7614C92.2298 45.7614 93.3462 45.7614 93.3462 45.7614L86.394 52.6474C86.394 52.6811 86.0557 52.698 85.3791 52.698C84.7364 52.698 83.9412 52.6811 82.994 52.6474C82.4865 52.6474 81.9452 52.6474 81.3701 52.6474C80.8289 52.6474 80.2706 52.6474 79.6955 52.6474C79.1541 52.6474 78.6297 52.6474 78.1224 52.6474C77.6149 52.6474 77.1244 52.6474 76.6507 52.6474C76.2786 52.6474 75.9234 52.7654 75.5851 53.0017C75.2806 53.2043 75.1115 53.5249 75.0776 53.9638V53.9132ZM87.9338 72.2418V63.6344L105.847 45.7107H112.14V72.2418H104.832V68.8495H93.313L99.8591 62.3687H104.832V55.3307L87.9338 72.2418ZM136.635 63.9382V72.4444L122.476 58.3687H131.154L136.635 63.9382ZM113.646 72.2418V53.0017L120.903 45.7107V72.2418H113.646ZM120.903 45.7107C120.937 45.7444 121.411 45.7614 122.324 45.7614C123.271 45.7614 124.303 45.7614 125.42 45.7614C125.859 45.7614 126.299 45.7614 126.739 45.7614C127.179 45.7614 127.585 45.7614 127.958 45.7614C130.562 45.7614 132.693 46.4533 134.351 47.8373C136.008 49.1875 136.837 51.2803 136.837 54.1156C136.837 56.411 136.042 58.3687 134.452 59.9889C132.896 61.6091 130.799 62.4193 128.159 62.4193C127.449 62.4193 126.993 62.3854 126.79 62.318C126.587 62.2505 126.502 62.1661 126.536 62.0648C126.57 62.0311 126.604 61.9973 126.638 61.9636C126.705 61.9298 126.756 61.896 126.79 61.8624C126.857 61.8285 126.925 61.8118 126.993 61.8118C127.06 61.778 127.094 61.7609 127.094 61.7609L122.73 58.3687C122.73 58.4025 122.764 58.4194 122.832 58.4194C122.899 58.4194 123.052 58.4025 123.288 58.3687C123.525 58.3687 123.846 58.3687 124.252 58.3687C124.692 58.3687 125.284 58.3687 126.029 58.3687C127.111 58.3687 127.939 58.0987 128.515 57.5586C129.09 57.0185 129.377 56.3266 129.377 55.4826C129.377 55.4491 129.377 55.432 129.377 55.432C129.377 55.3984 129.377 55.3814 129.377 55.3814C129.344 54.5713 129.09 53.9132 128.617 53.4067C128.177 52.9005 127.314 52.6474 126.029 52.6474C124.168 52.6474 122.848 52.6474 122.07 52.6474C121.292 52.6474 120.903 52.6474 120.903 52.6474V45.7107ZM137.578 72.2418V63.6344L155.49 45.7107H161.785V72.2418H154.475V68.8495H142.956L149.504 62.3687H154.475V55.3307L137.578 72.2418ZM163.595 72.2418V53.0017L170.902 45.7107V72.2418H163.595ZM188.156 45.6602V72.2418L169.684 53.9132L170.902 45.6602L180.392 55.2296V45.6602H188.156ZM189.749 72.2418V63.6344L207.662 45.7107H213.954V72.2418H206.647V68.8495H195.127L201.674 62.3687H206.647V55.3307L189.749 72.2418Z" fill="white"/>
<path d="M83.9859 94.983V101.616C83.9859 101.616 83.7492 101.616 83.2754 101.616C82.8357 101.616 82.362 101.616 81.8547 101.616C81.6178 101.616 81.3979 101.616 81.1949 101.616C80.992 101.616 80.8059 101.616 80.6366 101.616C77.0167 101.616 74.0229 100.333 71.6547 97.7677C69.3203 95.2025 68.1363 92.1813 68.1025 88.7046C68.0348 84.8903 69.4218 81.6837 72.2636 79.0846C75.1054 76.4855 78.4716 75.1859 82.362 75.1859C83.6476 75.1859 84.8317 75.1859 85.9142 75.1859C86.9968 75.1859 87.944 75.1692 88.756 75.1354C89.534 75.1354 90.1432 75.1354 90.5829 75.1354C91.0566 75.1354 91.2934 75.1354 91.2934 75.1354L85.6097 81.9707C85.6097 82.0044 85.2546 82.0213 84.5441 82.0213C83.8675 82.0213 83.0387 82.0213 82.0576 82.0213C80.1969 82.0213 78.556 82.6795 77.1352 83.996C75.7144 85.2786 75.0207 86.8481 75.0546 88.7046C75.0885 90.3587 75.6805 91.827 76.8307 93.1097C77.9809 94.3923 79.3849 95.0336 81.0427 95.0336C82.0237 95.0336 82.751 95.0336 83.2247 95.0336C83.7321 95.0336 83.9859 95.0336 83.9859 95.0336V94.983ZM84.6456 81.9707L85.6605 75.0848H92.5112L85.6097 81.9707H84.6456ZM87.9205 88.249C87.9205 83.7596 89.3412 80.3843 92.1831 78.1226C95.0247 75.8272 98.1373 74.6627 101.52 74.6289C101.554 74.6289 101.571 74.6289 101.571 74.6289C101.605 74.6289 101.639 74.6289 101.672 74.6289C105.089 74.6289 108.219 75.7766 111.061 78.072C113.902 80.3335 115.323 83.7427 115.323 88.2996C115.323 92.8227 113.902 96.2151 111.061 98.4767C108.219 100.738 105.106 101.886 101.723 101.919C101.689 101.919 101.656 101.919 101.622 101.919C101.622 101.919 101.605 101.919 101.571 101.919C98.1541 101.919 95.0247 100.789 92.1831 98.5272C89.3412 96.2657 87.9205 92.8564 87.9205 88.2996V88.249ZM108.219 88.249C108.219 86.0886 107.525 84.4516 106.138 83.3377C104.785 82.2237 103.279 81.6499 101.622 81.6161C101.588 81.6161 101.554 81.6161 101.52 81.6161C101.52 81.6161 101.503 81.6161 101.47 81.6161C99.8118 81.6161 98.2895 82.1732 96.9024 83.2871C95.5154 84.4009 94.8218 86.0719 94.8218 88.2996C94.8218 90.4936 95.4984 92.1476 96.8517 93.2615C98.2387 94.3755 99.7611 94.9493 101.419 94.983C101.453 94.983 101.47 94.983 101.47 94.983C101.503 94.983 101.537 94.983 101.571 94.983C103.263 94.983 104.785 94.4261 106.138 93.3121C107.525 92.1983 108.219 90.5274 108.219 88.2996V88.249ZM116.112 101.616V93.2615L134.482 75.0341V86.4262L146.053 75.0341V101.616H139.1V90.0717L127.428 101.717V90.4768L116.112 101.616ZM147.616 101.616V82.3756L154.874 75.0848V101.616H147.616ZM154.874 75.0848C154.907 75.1184 155.382 75.1354 156.295 75.1354C157.243 75.1354 158.274 75.1354 159.39 75.1354C159.831 75.1354 160.269 75.1354 160.71 75.1354C161.148 75.1354 161.555 75.1354 161.927 75.1354C164.532 75.1354 166.834 75.9454 168.828 77.5657C170.859 79.1521 171.873 81.7343 171.873 85.3124C171.873 87.9453 170.91 90.2236 168.98 92.1476C167.053 94.0379 164.77 94.983 162.13 94.983C161.419 94.983 160.726 94.983 160.049 94.983C159.408 94.983 158.849 94.9661 158.375 94.9325C157.868 94.9325 157.461 94.9325 157.156 94.9325C156.886 94.9325 156.752 94.9325 156.752 94.9325V88.4009C156.752 88.4347 156.785 88.4515 156.852 88.4515C156.92 88.4515 157.072 88.4347 157.309 88.4009C157.547 88.4009 157.868 88.4009 158.274 88.4009C158.713 88.4009 159.306 88.4009 160.049 88.4009C161.133 88.4009 161.944 88.1139 162.486 87.5401C163.028 86.9663 163.313 86.2576 163.348 85.4136C163.348 85.3461 163.348 85.2955 163.348 85.2617C163.348 85.1941 163.348 85.1435 163.348 85.1098C163.348 84.2659 163.078 83.5401 162.536 82.9326C162.028 82.325 161.182 82.0213 159.999 82.0213C158.138 82.0213 156.819 82.0213 156.04 82.0213C155.263 82.0213 154.874 82.0213 154.874 82.0213V75.0848ZM193.712 75.0848C193.746 75.1859 193.764 76.4012 193.764 78.7303C193.764 81.0256 193.764 83.5572 193.764 86.325C193.764 87.2702 193.746 88.1983 193.712 89.1098C193.712 90.0212 193.712 90.8987 193.712 91.7426C193.678 94.6117 192.596 97.0421 190.465 99.0336C188.334 101.025 185.813 102.021 182.903 102.021C180.027 102.021 177.542 101.025 175.444 99.0336C173.346 97.0421 172.297 94.6117 172.297 91.7426C172.297 91.2699 172.297 90.7637 172.297 90.2236C172.297 89.6836 172.297 89.1435 172.297 88.6034C172.297 87.0507 172.297 85.633 172.297 84.3503C172.297 83.0676 172.297 82.4263 172.297 82.4263L179.604 75.0848V91.7426C179.673 92.6877 180.027 93.4809 180.67 94.1223C181.346 94.7298 182.142 95.0336 183.056 95.0336C183.969 95.0336 184.764 94.7298 185.441 94.1223C186.152 93.4809 186.506 92.7045 186.506 91.7932C186.506 90.8818 186.506 89.8692 186.506 88.7552C186.506 87.6077 186.506 86.46 186.506 85.3124C186.506 83.996 186.506 82.7132 186.506 81.4643C186.506 80.2154 186.506 79.1185 186.506 78.1733C186.506 77.2618 186.506 76.5361 186.506 75.9961C186.506 75.4223 186.506 75.1354 186.506 75.1354L193.712 75.0848ZM202.589 101.616V81.92L209.896 75.0848V81.9707V101.616H202.589ZM212.231 81.9707H195.89L202.791 75.0848H219.133L212.231 81.9707ZM214.308 101.616V82.3756L221.616 75.0848V81.9707V101.616H214.308ZM221.616 101.616H231.158V94.983H219.587L221.616 101.616ZM221.616 91.7426H231.158V85.2111H219.181L221.616 91.7426ZM231.056 81.9707H219.79L221.616 75.0848H237.957L231.056 81.9707Z" fill="white"/>
<path d="M256.116 93.3124V101.819L241.958 87.7429H250.637L256.116 93.3124ZM233.127 101.616V82.3759L240.385 75.085V101.616H233.127ZM240.385 75.085C240.419 75.1186 240.892 75.1357 241.806 75.1357C242.753 75.1357 243.784 75.1357 244.901 75.1357C245.341 75.1357 245.78 75.1357 246.221 75.1357C246.66 75.1357 247.067 75.1357 247.44 75.1357C250.043 75.1357 252.174 75.8275 253.833 77.2115C255.49 78.5617 256.319 80.6544 256.319 83.4899C256.319 85.7852 255.525 87.7429 253.933 89.3632C252.379 90.9833 250.281 91.7935 247.641 91.7935C246.933 91.7935 246.474 91.7597 246.272 91.6922C246.069 91.6247 245.983 91.5403 246.017 91.439C246.053 91.4052 246.086 91.3714 246.119 91.3379C246.187 91.3041 246.238 91.2702 246.272 91.2366C246.339 91.2028 246.408 91.186 246.474 91.186C246.543 91.1522 246.576 91.1352 246.576 91.1352L242.211 87.7429C242.211 87.7767 242.246 87.7935 242.313 87.7935C242.382 87.7935 242.534 87.7767 242.77 87.7429C243.008 87.7429 243.328 87.7429 243.735 87.7429C244.174 87.7429 244.765 87.7429 245.51 87.7429C246.594 87.7429 247.423 87.473 247.997 86.9327C248.573 86.3927 248.86 85.7008 248.86 84.8568C248.86 84.8232 248.86 84.8062 248.86 84.8062C248.86 84.7726 248.86 84.7555 248.86 84.7555C248.826 83.9455 248.573 83.2873 248.098 82.781C247.658 82.2748 246.797 82.0216 245.51 82.0216C243.649 82.0216 242.331 82.0216 241.553 82.0216C240.773 82.0216 240.385 82.0216 240.385 82.0216V75.085Z" fill="white"/>
</svg>
