<svg width="445" height="109" viewBox="0 0 445 109" fill="none" xmlns="http://www.w3.org/2000/svg">
<g clip-path="url(#clip0_876_2)">
<path d="M60.2045 -0.000675405C58.3207 0.165507 53.2301 1.32114 53.2301 1.32114C41.7559 4.27899 39.0418 14.6638 39.0418 14.6638C38.4814 16.41 38.2269 18.1997 38.1521 19.8857V22.1805C38.3043 25.7261 39.095 28.3735 39.095 28.3735C42.9277 45.3233 61.7728 73.1742 65.8229 79.0248C66.1103 79.309 66.3404 79.2064 66.3404 79.2064C66.7775 79.086 66.7433 78.6678 66.7433 78.6678L66.7516 78.6699C72.9898 16.483 60.2045 -0.000675405 60.2045 -0.000675405ZM80.817 -0.000675405C80.817 -0.000675405 67.9759 16.4917 74.2189 78.7148H74.2272C74.2755 79.1098 74.5565 79.192 74.5565 79.192C74.9743 79.3535 75.1885 78.9532 75.1885 78.9532L75.1906 78.9572C79.3446 72.9572 98.0823 45.2579 101.898 28.3732C101.898 28.3732 103.967 20.201 101.97 14.6634C101.97 14.6634 99.1332 4.11786 87.6445 1.33104C87.6445 1.33104 84.3334 0.493096 80.817 -0.000675405ZM21.5872 18.6679C21.5872 18.6679 10.6545 29.0169 10.1111 39.9884H10.1154V41.6508C10.1237 41.776 10.1301 41.9027 10.138 42.0302C10.6089 50.8772 17.2822 56.1133 17.2822 56.1133C28.0343 66.5645 54.0691 79.7596 60.1189 82.7535C60.2037 82.7851 60.5163 82.887 60.6998 82.6557C60.6998 82.6557 60.7953 82.5834 60.8389 82.4535V82.178C60.8345 82.1622 60.8262 82.1464 60.8183 82.1291C44.2507 46.0328 21.5872 18.6679 21.5872 18.6679ZM119.408 18.6679C119.408 18.6679 96.8108 45.9472 80.2505 81.9703L80.2568 81.9682C80.2568 81.9682 80.0613 82.3859 80.3775 82.6557C80.3775 82.6557 80.4719 82.7267 80.6025 82.7555H80.8316C80.8727 82.7437 80.9169 82.7279 80.9604 82.6983C87.1745 79.6224 113.008 66.5179 123.709 56.1149C123.709 56.1149 130.486 50.6873 130.841 41.9728C131.624 29.8692 119.408 18.6679 119.408 18.6679ZM139.746 54.5039C139.746 54.5039 102.906 74.2212 83.8584 87.0353L83.8649 87.0413C83.8649 87.0413 83.5192 87.2671 83.6399 87.6716C83.6399 87.6716 83.8206 87.9981 84.0837 87.9981C90.9064 88.0099 116.724 88.0408 117.371 87.9204C117.371 87.9204 120.709 87.7874 124.834 86.207C124.834 86.207 134.017 83.2952 138.787 72.897C138.787 72.897 140.967 68.5491 140.998 62.4408V62.1818C140.982 59.8262 140.649 57.2184 139.746 54.5039ZM1.23856 54.5958C-2.11331 64.9447 2.39915 73.2836 2.40644 73.2971C7.10898 83.2067 16.0854 86.2093 16.0854 86.2093C20.2297 87.9074 24.375 88.0248 24.375 88.0248C25.0222 88.1428 50.1517 88.0366 56.885 88.005C57.17 88.0029 57.3268 87.7172 57.3268 87.7172C57.3466 87.6856 57.364 87.6541 57.3718 87.6252V87.3663C57.316 87.193 57.1673 87.0707 57.1673 87.0707L57.1716 87.0686C38.1333 74.2587 1.23856 54.5958 1.23856 54.5958ZM56.116 91.1865L12.7781 92.7021C17.4779 101.058 25.393 107.552 33.6381 105.557C39.3281 104.138 52.2185 95.1712 56.4739 92.1411L56.4597 92.1293C56.7905 91.8328 56.6723 91.5949 56.6723 91.5949C56.5635 91.2068 56.116 91.2072 56.116 91.2072L56.116 91.1865ZM84.8197 91.218L84.8153 91.2338C84.8153 91.2338 84.4349 91.282 84.3285 91.5662C84.3285 91.5662 84.2361 91.9546 84.4922 92.1475L84.4878 92.1515C88.637 95.1189 101.215 103.889 107.274 105.592C107.274 105.592 108.192 105.903 109.731 105.959H110.655C114.715 105.817 121.788 103.737 128.214 92.7246L84.8197 91.218Z" fill="#CF0A2C"/>
<path d="M246.014 29.0001V56.6345C246.014 64.484 242.211 68.6723 235.302 68.6723C228.354 68.6723 224.528 64.3631 224.528 56.2995V29.0304H214.969V56.6345C214.969 70.2167 222.334 78 235.176 78C248.139 78 255.573 70.0676 255.573 56.2364V29.0001H246.014ZM281.183 29.0001L260.422 77.2476H270.179L274.187 67.9035L274.474 67.2032H296.042L300.272 77.2475H310.295L289.727 29.2857L289.542 29L281.183 29.0001ZM338.021 29.0001L327.322 62.1975L316.908 29.0249H306.735L323.157 77.2778H331.073L341.793 45.5796L352.504 77.2778H360.487L376.869 29.0249H366.956L356.52 62.1975L345.819 29.0001H338.021ZM431.567 29.0001V77.2064H441V29.0001H431.567ZM161 29.003V77.2751H170.562V57.6698H192.152V77.2751H201.716V29.003H192.152V48.4766H170.562V29.003H161ZM384.578 29.0356V77.242H420.166V68.4525H394.011V56.4998H411.403V47.7075H394.011V37.8252H419.255V29.0356H384.578ZM285.234 41.2163L292.051 57.3783H292.027L292.491 58.4933H278.029L278.487 57.3783L285.234 41.2163Z" fill="white"/>
</g>
<defs>
<clipPath id="clip0_876_2">
<rect width="445" height="109" fill="white"/>
</clipPath>
</defs>
</svg>
