<svg width="554" height="144" viewBox="0 0 554 144" fill="none" xmlns="http://www.w3.org/2000/svg">
<path d="M50.304 39.28V48.208H32.544V106H21.6V48.208H3.744V39.28H50.304ZM72.3315 39.28V106H61.3875V39.28H72.3315ZM129.804 39.28V48.208H112.044V106H101.1V48.208H83.244V39.28H129.804ZM151.832 39.28V106H140.888V39.28H151.832ZM202.968 106L177.144 76.144V106H166.2V39.28H177.144V69.712L203.064 39.28H216.792L187.8 72.688L217.272 106H202.968Z" fill="white"/>
<path d="M348.304 39.28V48.208H330.544V106H319.6V48.208H301.744V39.28H348.304ZM370.332 48.112V67.696H393.372V76.624H370.332V97.072H396.252V106H359.388V39.184H396.252V48.112H370.332ZM480.003 39.28V106H469.059V60.304L448.707 106H441.123L420.675 60.304V106H409.731V39.28H421.539L444.963 91.6L468.291 39.28H480.003ZM505.236 39.28V81.808C505.236 86.864 506.548 90.672 509.172 93.232C511.86 95.792 515.572 97.072 520.308 97.072C525.108 97.072 528.82 95.792 531.444 93.232C534.132 90.672 535.476 86.864 535.476 81.808V39.28H546.42V81.616C546.42 87.056 545.236 91.664 542.868 95.44C540.5 99.216 537.332 102.032 533.364 103.888C529.396 105.744 525.012 106.672 520.212 106.672C515.412 106.672 511.028 105.744 507.06 103.888C503.156 102.032 500.052 99.216 497.748 95.44C495.444 91.664 494.292 87.056 494.292 81.616V39.28H505.236Z" fill="white"/>
<circle cx="259" cy="72" r="25" fill="white"/>
</svg>
