<svg width="142" height="166" viewBox="0 0 142 166" fill="none" xmlns="http://www.w3.org/2000/svg">
<g clip-path="url(#clip0_1278_20)">
<path d="M67.5771 14.5172C64.184 15.6989 12.6662 43.7782 9.89516 45.9728C8.76415 46.8168 7.35037 48.6738 6.61521 50.0806C5.37109 52.6128 5.37109 52.669 5.37109 84.6873C5.37109 116.706 5.37109 116.762 6.61521 119.294C7.35037 120.701 8.76415 122.502 9.83861 123.402C11.8744 124.978 60.2254 151.65 65.3716 154.013C69.2736 155.758 72.6101 156.152 75.89 155.139C80.1879 153.788 131.48 125.54 134.59 122.783C136.173 121.432 137.644 119.463 138.096 118.281C139.17 115.243 139.17 54.1321 138.096 51.0934C137.644 49.9117 136.173 47.9423 134.646 46.5917C131.48 43.8345 80.1314 15.5301 75.9466 14.2921C72.6101 13.2792 71.0267 13.3355 67.5771 14.5172ZM92.7422 50.3619C102.865 55.8765 111.913 61.1097 112.818 62.0101L114.514 63.5856V84.6873V105.733L112.987 107.308C112.139 108.152 109.255 110.009 106.541 111.416C99.7545 114.961 100.094 115.918 100.094 94.4785C100.094 80.7484 99.9242 77.147 99.3587 76.9219C98.4538 76.5843 82.7892 85.0812 80.8665 86.9945L79.4527 88.345L79.17 107.308L78.8872 126.272L76.9645 127.566C74.1935 129.423 71.5922 129.761 68.9908 128.579C64.9192 126.722 65.0888 127.679 64.9192 107.365C64.7495 89.9206 64.693 88.9077 63.6185 87.4446C62.8833 86.488 56.2103 82.4928 45.9181 76.9219C30.1404 68.2562 29.4052 67.806 29.4052 66.2304C29.4052 65.3301 29.8576 63.867 30.3666 62.9667C31.4976 61.1097 37.0396 57.9585 39.2451 57.9585C41.0547 57.9585 40.9981 57.9023 57.1717 66.7368C67.4074 72.364 70.3481 73.7145 72.1577 73.7145C75.0418 73.7145 87.9354 66.6806 87.9354 65.105C87.9354 64.3172 84.3161 62.0663 74.137 56.5517C66.5026 52.3877 59.9427 48.6175 59.4337 48.1111C58.642 47.3795 58.642 47.1545 59.4903 46.3104C59.9992 45.804 62.6571 44.1721 65.4281 42.6528C69.3867 40.4582 70.8005 39.9518 72.3839 40.1206C73.628 40.2894 81.7148 44.3409 92.7422 50.3619ZM36.983 79.1165C40.1499 80.8609 42.8643 82.6053 43.0905 82.9429C43.3167 83.2806 43.5429 90.2019 43.5429 98.3612C43.5429 110.797 43.4298 113.217 42.6947 113.442C41.4506 113.948 31.441 108.209 30.3666 106.352C29.5183 105.001 29.4052 102.863 29.4052 91.046C29.4052 78.0473 29.6314 75.9653 31.0452 75.9653C31.1583 75.9653 33.8727 77.3721 36.983 79.1165Z" fill="white"/>
</g>
<defs>
<clipPath id="clip0_1278_20">
<rect width="142" height="166" fill="white"/>
</clipPath>
</defs>
</svg>
